<?xml version="1.0" standalone="no"?><!DOCTYPE svg PUBLIC "-//W3C//DTD SVG 1.1//EN" "http://www.w3.org/Graphics/SVG/1.1/DTD/svg11.dtd"><svg t="1709788830702" class="icon" viewBox="0 0 1024 1024" version="1.1" xmlns="http://www.w3.org/2000/svg" p-id="6138" xmlns:xlink="http://www.w3.org/1999/xlink" width="200" height="200"><path d="M513.678734 928.555208c-34.568307 19.608593-71.128991 22.176069-109.643166 14.018271-9.69071-2.060939-19.175735-4.846378-28.568663-7.973602-13.8351-4.682649-26.420743-12.45466-38.687114-20.228717a541.582759 541.582759 0 0 1-3.001357-1.904372c-36.796044-23.405059-55.967686-69.007677-51.665706-112.019283 10.379395-103.858416 131.10599-138.069589 215.522611-156.968008 52.806693-11.819187 107.235326-24.944112 149.944034-60.019979 38.812981-31.870872 67.163679-76.613912 76.700893-126.047787 3.711532-19.250436 4.507664-39.058574 2.062985-58.524928-2.832512-22.639626-9.390881-44.919049-18.945491-65.748447-15.625886-34.044374-39.765679-66.842361-72.272023-86.633103-26.202779-15.95539-56.510038-23.729447-86.869487-29.065989-1.11745-5.887081-2.375094-11.754718-3.912099-17.572214-13.43294-50.726312-45.277206-97.976452-91.714842-122.702599-13.511735-7.187703-26.51284-12.157901-41.827641-12.34926-2.619664 0-3.1262 2.226714-1.919722 3.76372 0.430812 0.558725 0.934279 1.074472 1.417279 1.537006 14.699794 14.043854 29.569456 28.02631 42.264593 43.895743s23.237237 33.82641 28.076452 53.53938c2.583848 10.488889 3.50994 21.311375 4.052292 32.105209 0.192382 3.886517 0.294712 7.79043 0.286526 11.685134-12.139481 0.75213-24.279986 2.533706-36.310997 4.358261-12.236696 1.860371-24.477484 3.712555-36.71418 5.563715-17.776875 2.699482-36.745902 5.947456-49.804312 18.271133-9.518794 8.987698-15.10093 22.166859-26.455536 28.700669-3.252067 1.868557-6.833639 3.090385-10.213619 4.723581-4.409426 2.114151-8.009418 5.799076-12.537547 7.582699-3.51608 1.379417-7.619538 1.483794-11.267625 2.505053-10.060123 2.821255-20.087501 7.763824-26.855648 15.896039-5.122671 6.149047-8.165983 13.992689-8.528234 21.974477-26.984584 9.877975-55.474452 18.210757-83.920318 22.360264-9.868765 1.441838-20.056801 2.601244-28.826535 7.345292-3.39226 1.834788-6.571672 4.236488-8.67252 7.466042-4.040013 6.210445-4.358261 23.99346-3.637854 31.364335 0.98749 10.131755 2.01796 14.141068 4.052293 20.735253 7.694239 19.397792 32.337499 21.710464 53.176106 22.593578 19.529799 0.830925 71.037916-8.522094 83.300195 13.503549 12.550851 22.567995-43.033096 22.803355-54.879912 24.73331-18.752086 3.048429-37.573757 7.337105-54.491055 16.255219-6.297426 3.317559-12.616342 7.640004-15.32401 14.208607-2.703575 6.567579-0.022513 15.69547 6.861268 17.538445 2.703575 0.724501 5.662977 0.270153 8.275477 1.274016 6.777357 2.595105 6.623861 11.905144 8.165984 18.980283 2.139733 9.807367 10.210549 18.086937 19.99131 20.507057 13.518898 3.335978 27.840068 4.314259 41.210587 0.418532 17.638729-5.152347 35.71748-9.039887 53.837162-12.052501 27.323299-4.533246 71.960938-14.71719 87.98796 16.210194 13.791098 26.630521-7.646144 55.048757-23.549345 75.252914-17.402345 22.104437-39.321564 40.264029-59.222823 60.028165-16.370853 16.263405-31.78696 33.816177-42.394552 54.437844-25.336038 49.259914-17.794271 112.953561 21.316491 152.939251 41.267892 42.184775 97.781 52.167127 154.445558 52.167126 34.20708-1.876744 72.04178-13.799284 94.077655-41.641399-3.743254 4.744048-9.175987 8.055466-14.391778 11.012822z m-140.242068-600.465845c-3.725858 1.772366-9.577123 5.607718-14.799054 5.789867-4.26821 0.157589-6.634094-2.847861-7.373945-4.358261-0.955768-1.964748-3.082198-7.362688-4.976338-14.96176-2.040473-6.506181 6.073322-8.087189 10.257622-9.353019 38.084387-11.555174 68.941162-21.86089 103.843066-27.050076-21.125133 11.852956-42.72815 24.87555-63.854307 36.72646-7.411807 4.166903-15.425318 9.53926-23.097044 13.206789z" p-id="6139"></path><path d="M881.125477 521.964956c-2.026146 4.874007-2.943029 10.93505-5.135974 16.116049-2.087545 4.950755-4.541433 9.745968-6.846942 14.609743-5.100158 10.778484-10.254551 21.662369-17.466813 31.240515-14.960737 19.85214-33.29429 38.468127-55.583946 50.037626 15.913435-16.901948 26.045189-38.366819 35.783994-59.145052 10.31595-22.00313 17.903765-45.330418 21.590738-69.365834 7.485485-48.777937-2.034333-101.138468-31.641651-140.704602 10.775414 33.731242 16.104793 69.959352 9.048073 104.651478-7.05672 34.689057-27.7756 67.642586-59.267848 84.027766 33.571606-43.582611 38.969547-104.84079 21.151739-156.833955-17.825994-51.993165-56.517201-95.084589-101.94995-126.223796 38.349423 44.806485 58.386782 104.739483 54.67525 163.51819-1.923816 30.375821-10.194176 60.271712-23.740704 87.531566-9.160637 18.411325-20.74344 35.642778-34.438346 51.014884-13.290701 14.918781-30.356378 26.613124-47.056736 37.633109-46.071292 30.402427-96.701412 44.900629-150.022829 56.327889-49.499367 10.600429-100.976786 22.88215-142.145417 53.835116-16.951067 12.741185-32.105209 28.812209-40.883129 48.296983-9.485025 21.046339-7.9296 44.715411-2.493797 66.438155 5.16258 20.647249 15.292288 40.08802 31.106461 54.622038 21.930475 20.147876 56.381102 33.444716 85.980234 37.136805 30.91408 3.854794 67.186192-1.220804 93.824899-18.565844 29.41596-19.154245 40.353057-60.931744 19.809161-91.305519-8.629541-12.761652-21.712511-22.99983-36.771485-26.944675-11.632945-3.050476-24.357757 0.023536-30.732955 4.427846-6.770194 4.687766-7.469112 14.750959-0.883113 19.920701 10.217712 8.033977 24.453948 6.64842 33.223682 17.241686 19.834744 23.956621-2.445702 52.489468-28.350698 55.329143-30.68179 3.354398-62.120826-14.055111-68.795853-45.223994-5.629207-26.254967 8.40646-53.199643 32.555464-64.683185 24.432459-11.626805 53.482075-13.660114 80.172971-12.489452 39.783075 1.744737 79.042217 11.19497 118.973671 10.556427 32.000831-0.515746 63.968917-6.695492 93.854575-18.111496 22.526039-8.612145 43.617403-21.014616 62.72867-35.607986 20.856004-15.931854 39.826054-34.821063 54.44603-56.646138 15.652492-23.345708 23.617907-50.353828 30.342052-77.333296 5.288446-21.231557 9.499351-43.563168 4.940522-65.328891z" p-id="6140"></path><path d="M472.83142 848.167343l-18.524912-18.463514-18.524912 18.463514 18.524912 18.466583 18.524912-18.466583z" p-id="6141"></path></svg>